<?xml version="1.0" encoding="UTF-8" standalone="no"?>
<!-- Created with Inkscape (http://www.inkscape.org/) -->

<svg
   xmlns:dc="http://purl.org/dc/elements/1.1/"
   xmlns:cc="http://creativecommons.org/ns#"
   xmlns:rdf="http://www.w3.org/1999/02/22-rdf-syntax-ns#"
   xmlns:svg="http://www.w3.org/2000/svg"
   xmlns="http://www.w3.org/2000/svg"
   xmlns:sodipodi="http://sodipodi.sourceforge.net/DTD/sodipodi-0.dtd"
   xmlns:inkscape="http://www.inkscape.org/namespaces/inkscape"
   width="500"
   height="500"
   id="svg2"
   version="1.1"
   inkscape:version="0.48.4 r9939"
   sodipodi:docname="easy-object-selector.svg"
   inkscape:export-filename="C:\my\code\workspace\npm\easy-object-selector\docs\easy-object-selector.png"
   inkscape:export-xdpi="12.6"
   inkscape:export-ydpi="12.6">
  <defs
     id="defs4" />
  <sodipodi:namedview
     id="base"
     pagecolor="#ffffff"
     bordercolor="#555555"
     borderopacity="1.0"
     inkscape:pageopacity="0.0"
     inkscape:pageshadow="2"
     inkscape:zoom="0.71"
     inkscape:cx="150.70423"
     inkscape:cy="250"
     inkscape:document-units="px"
     inkscape:current-layer="g4672"
     showgrid="false"
     inkscape:window-width="1536"
     inkscape:window-height="801"
     inkscape:window-x="-8"
     inkscape:window-y="-8"
     inkscape:window-maximized="1"
     showguides="true"
     inkscape:guide-bbox="true" />
  <metadata
     id="metadata7">
    <rdf:RDF>
      <cc:Work
         rdf:about="">
        <dc:format>image/svg+xml</dc:format>
        <dc:type
           rdf:resource="http://purl.org/dc/dcmitype/StillImage" />
        <dc:title></dc:title>
        <dc:creator>
          <cc:Agent>
            <dc:title>Vincenzo De Vivo</dc:title>
          </cc:Agent>
        </dc:creator>
        <dc:description>http://www.vincenzodevivo.com</dc:description>
      </cc:Work>
    </rdf:RDF>
  </metadata>
  <g
     inkscape:label="Layer 1"
     inkscape:groupmode="layer"
     id="layer1"
     transform="translate(0,-552.3622)">
    <g
       id="g4672"
       transform="matrix(0.12357811,0,0,0.12357811,-0.8701284,1028.7142)">
      <g
         transform="matrix(-1.030027,0,0,0.53264368,-23.00652,-856.03379)"
         style="font-size:4027.72900391px;font-style:normal;font-weight:normal;line-height:125%;letter-spacing:0px;word-spacing:0px;fill:#4d4d4d;fill-opacity:1;stroke:none;font-family:Sans"
         id="text3015">
        <path
           d="m -29.171701,-1992.9177 0,320.5663 c -100.956579,2.6231 -183.228629,30.1564 -246.816399,82.5999 -63.58974,52.4451 -105.87299,123.5728 -126.84987,213.3831 -20.97859,89.8115 -32.12301,244.1945 -33.43329,463.1495 -1.31194,218.95523 -5.24526,363.17715 -11.79999,432.6662 -11.80079,111.44391 -33.76185,200.2715 -65.88326,266.48305 -32.12291,66.2104 -71.78393,119.310289 -118.98321,159.29983 -47.20053,39.988071 -107.51151,70.471341 -180.93314,91.449901 -49.82256,14.421367 -131.11128,21.632463 -243.86644,21.63331 l -110.1332,0 0,-308.766331 60.9666,0 c 136.35514,-5.4e-4 226.82162,-24.58382 271.39973,-73.74992 44.57726,-49.16703 66.86611,-159.62792 66.8666,-331.38298 -4.9e-4,-327.77723 5.89949,-535.58796 17.69998,-623.43266 20.97722,-145.5325 62.93269,-261.8934 125.86653,-349.083 62.93257,-87.1878 152.08794,-155.0377 267.46638,-203.5497 -150.77837,-72.11 -256.97815,-167.4931 -318.59966,-286.1497 -61.62268,-118.654 -92.43372,-318.9258 -92.43323,-600.8161 -4.9e-4,-255.6642 -3.27827,-408.4083 -9.83333,-458.2328 -9.17824,-87.8419 -35.07263,-149.1362 -77.68325,-183.8831 -42.61142,-34.7418 -126.19458,-52.114 -250.74975,-52.1166 l -60.9666,0 0,-308.7664 110.1332,0 c 128.48846,0 221.57715,10.4918 279.2664,31.4667 83.91046,28.8472 153.3992,77.3582 208.46645,145.5331 55.06586,68.1804 90.79356,154.058 107.18322,257.6331 16.38805,103.58 25.23803,273.3686 26.54997,509.3661 1.31028,236.0015 12.4547,398.9067 33.43329,488.7161 20.97688,89.8125 63.26013,160.9401 126.84987,213.3832 63.58777,52.4456 145.85982,79.9788 246.816399,82.5999 z"
           id="path3086"
           inkscape:connector-curvature="0"
           style="fill:#4d4d4d" />
      </g>
      <g
         id="g3095"
         style="font-size:4027.72900391px;font-style:normal;font-weight:normal;line-height:125%;letter-spacing:0px;word-spacing:0px;fill:#333333;fill-opacity:1;stroke:none;font-family:Sans"
         transform="matrix(1.030027,0,0,1,4083.1128,1.7012651e-6)">
        <path
           style="fill:#4d4d4d"
           inkscape:connector-curvature="0"
           id="path3097"
           d="m -29.171701,-1917.5492 0,170.7476 c -100.956579,1.3972 -183.228629,16.0626 -246.816399,43.9963 -63.58974,27.9345 -105.87299,65.8203 -126.84987,113.6571 -20.97859,47.8376 -32.12301,130.0687 -33.43329,246.6937 -1.31194,116.6251 -5.24526,193.444 -11.79999,230.4569 -11.80079,59.3599 -33.76185,106.6734 -65.88326,141.94052 -32.12291,35.26675 -71.78393,63.55025 -118.98321,84.8506 -47.20053,21.2995 -107.51151,37.5363 -180.93314,48.7105 -49.82256,7.6814 -131.11128,11.52245 -243.86644,11.52285 l -110.1332,0 0,-164.46325 60.9666,0 c 136.35514,-3e-4 226.82162,-13.09442 271.39973,-39.28242 44.57726,-26.1885 66.86611,-85.0248 66.8666,-176.5091 -4.9e-4,-174.5885 5.89949,-285.2775 17.69998,-332.0674 20.97722,-77.517 62.93269,-139.4959 125.86653,-185.9369 62.93257,-46.44 152.08794,-82.5798 267.46638,-108.4195 -150.77837,-38.4089 -256.97815,-89.2141 -318.59966,-152.4158 -61.62268,-63.2003 -92.43372,-169.8738 -92.43323,-320.0209 -4.9e-4,-136.1779 -3.27827,-217.5361 -9.83333,-244.0748 -9.17824,-46.7884 -35.07263,-79.4364 -77.68325,-97.9442 -42.61142,-18.505 -126.19458,-27.7581 -250.74975,-27.7595 l -60.9666,0 0,-164.4625 110.1332,0 c 128.48846,0 221.57715,5.5884 279.2664,16.7605 83.91046,15.3653 153.3992,41.2044 208.46645,77.5173 55.06586,36.3159 90.79356,82.058 107.18322,137.2267 16.38805,55.1712 25.23803,145.608 26.54997,271.3106 1.31028,125.7047 12.4547,212.4751 33.43329,260.3115 20.97688,47.8381 63.26013,85.7238 126.84987,113.6572 63.58777,27.9349 145.85982,42.6002 246.816399,43.9964 z" />
      </g>
      <g
         transform="matrix(1.0981534,0,0,1.2077143,-30.602008,417.29823)"
         style="font-size:1053.58825684px;font-style:normal;font-variant:normal;font-weight:bold;font-stretch:normal;text-align:start;line-height:125%;letter-spacing:0px;word-spacing:0px;writing-mode:lr-tb;text-anchor:start;fill:#000000;fill-opacity:1;stroke:none;font-family:Sans;-inkscape-font-specification:Sans Bold"
         id="text3011"
         inkscape:export-xdpi="12.6"
         inkscape:export-ydpi="12.6">
        <path
           d="m 854.26593,-1982.5566 -131.18408,-23.6646 c 14.74742,-52.8161 40.1268,-91.9141 76.13821,-117.294 36.01116,-25.3788 89.51363,-38.0685 160.50759,-38.0691 64.47705,6e-4 112.49205,7.6315 144.04525,22.8929 31.5523,15.2625 53.7593,34.64 66.621,58.1326 12.8606,23.4935 19.2912,66.6213 19.2917,129.3835 l -1.5433,168.7388 c -5e-4,48.0152 2.3145,83.4263 6.945,106.2333 4.6295,22.8073 13.2894,47.2435 25.9796,73.3088 l -143.0164,0 c -3.773,-9.603 -8.403,-23.836 -13.89,-42.6991 -2.4012,-8.5741 -4.116,-14.233 -5.1445,-16.9768 -24.6938,24.0076 -51.1021,42.0132 -79.2249,54.017 -28.12341,12.0037 -58.13281,18.0056 -90.0283,18.0056 -56.24641,0 -100.57458,-15.2619 -132.98465,-45.7858 -32.41024,-30.5238 -48.61531,-69.1073 -48.61528,-115.7507 -3e-5,-30.8666 7.37371,-58.3895 22.12124,-82.5688 14.74742,-24.1787 35.41104,-42.6988 61.99091,-55.5603 26.57964,-12.8609 64.90593,-24.093 114.979,-33.6963 67.56378,-12.6893 114.37848,-24.5216 140.44418,-35.4969 l 0,-14.4045 c -4e-4,-27.7797 -6.8597,-47.5859 -20.5779,-59.4187 -13.719,-11.8318 -39.61281,-17.7479 -77.6816,-17.7484 -25.72262,5e-4 -45.78605,5.0592 -60.19034,15.1762 -14.40473,10.1179 -26.06553,27.8663 -34.98243,53.2453 z m 193.43227,117.294 c -18.5205,6.1736 -47.84398,13.5474 -87.97055,22.1213 -40.12715,8.5743 -66.36394,16.9769 -78.71045,25.2079 -18.86326,13.3758 -28.29479,30.3526 -28.29461,50.9303 -1.8e-4,20.235 7.54504,37.7262 22.63569,52.4736 15.09023,14.7476 34.29625,22.1213 57.6181,22.1212 26.06505,10e-5 50.92998,-8.574 74.59492,-25.7223 17.4908,-13.0326 28.9801,-28.9804 34.4679,-47.8436 3.7723,-12.3466 5.6586,-35.8397 5.659,-70.4793 z"
           style="fill:#ff0000"
           id="path3073"
           inkscape:connector-curvature="0" />
        <path
           d="m 1332.702,-1602.8944 0,-144.5597 144.5597,0 0,144.5597 z"
           style="fill:#ff0000"
           id="path3075"
           inkscape:connector-curvature="0" />
        <path
           d="m 1618.7348,-1602.8944 0,-754.1799 144.5597,0 0,271.6282 c 44.5852,-50.7582 97.4017,-76.1376 158.4498,-76.1382 66.5347,6e-4 121.5805,24.0938 165.1376,72.2799 43.556,48.187 65.3342,117.3801 65.3348,207.5795 -6e-4,93.2867 -22.2076,165.1377 -66.6209,215.5535 -44.4145,50.4158 -98.3457,75.6237 -161.7937,75.6237 -31.2102,0 -61.9913,-7.8024 -92.3433,-23.4073 -30.3527,-15.6049 -56.5037,-38.6693 -78.4533,-69.1932 l 0,80.2538 z m 143.5308,-285.0039 c -2e-4,56.5895 8.9168,98.4312 26.7512,125.5252 25.0362,38.4122 58.3038,57.6182 99.8028,57.6181 31.8954,1e-4 59.0754,-13.6327 81.54,-40.8986 22.4637,-27.2655 33.6958,-70.2218 33.6963,-128.869 -5e-4,-62.4193 -11.3183,-107.4334 -33.9536,-135.0425 -22.6361,-27.6082 -51.6166,-41.4125 -86.9416,-41.413 -34.6397,5e-4 -63.4488,13.4618 -86.4271,40.3841 -22.9789,26.9232 -34.4682,67.8217 -34.468,122.6957 z"
           style="fill:#0000ff"
           id="path3077"
           inkscape:connector-curvature="0" />
        <path
           d="m 2268.9963,-1602.8944 0,-144.5597 144.5597,0 0,144.5597 z"
           style="fill:#0000ff"
           id="path3079"
           inkscape:connector-curvature="0" />
        <path
           d="m 3037.5807,-1987.7011 -142.5019,25.7224 c -4.8019,-28.4657 -15.691,-49.901 -32.6674,-64.3059 -16.9771,-14.4041 -39.0126,-21.6064 -66.1065,-21.6068 -36.0116,4e-4 -64.7349,12.4329 -86.1699,37.2974 -21.4356,24.8654 -32.1532,66.4498 -32.153,124.7535 -2e-4,64.8206 10.8889,110.6064 32.6674,137.3575 21.778,26.7514 51.0158,40.127 87.7133,40.1269 27.4368,10e-5 49.901,-7.8024 67.3926,-23.4074 17.4908,-15.6047 29.8375,-42.4417 37.0402,-80.511 l 141.9875,24.179 c -14.748,65.1635 -43.0426,114.3789 -84.8838,147.6464 -41.8422,33.2676 -97.9169,49.9014 -168.2243,49.9014 -79.9111,0 -143.6168,-25.2079 -191.1172,-75.6237 -47.5007,-50.4158 -71.251,-120.2091 -71.251,-209.3801 0,-90.1994 23.836,-160.4214 71.5082,-210.6662 47.672,-50.2439 112.1493,-75.366 193.4322,-75.3666 66.5348,6e-4 119.4371,14.3194 158.707,42.9564 39.269,28.638 67.4778,72.2803 84.6266,130.9268 z"
           style="fill:#ff6600"
           id="path3081"
           inkscape:connector-curvature="0" />
      </g>
    </g>
  </g>
</svg>
